<svg version="1.1" id="Layer_1" xmlns="http://www.w3.org/2000/svg" xmlns:xlink="http://www.w3.org/1999/xlink" x="0px" y="0px"
	 width="100%" viewBox="0 0 1057 136" enable-background="new 0 0 1057 136" xml:space="preserve">
<path fill="#FAF9F9" opacity="1.000000" stroke="none" 
	d="
M787.000000,137.000000 
	C524.721497,137.000000 262.942993,137.000000 1.082238,137.000000 
	C1.082238,91.731117 1.082238,46.462036 1.082238,1.096477 
	C353.333313,1.096477 705.666626,1.096477 1057.971436,1.096477 
	C1057.971436,46.390419 1057.971436,91.695221 1057.971436,137.000000 
	C967.795227,137.000000 877.647644,137.000000 787.000000,137.000000 
M431.936066,66.450546 
	C424.834351,52.147114 417.717926,37.850933 410.640533,23.535475 
	C408.712463,19.635611 406.114563,16.621344 401.333832,17.989758 
	C396.886963,19.262617 396.139130,22.974220 396.166016,27.142298 
	C396.260620,41.804504 396.202728,56.467697 396.202728,71.130516 
	C396.202728,85.626717 396.135071,100.123375 396.234161,114.618896 
	C396.277161,120.909698 402.034027,124.770111 406.643738,121.289925 
	C408.714874,119.726234 410.099854,115.990181 410.146057,113.212410 
	C410.450684,94.888924 410.305969,76.557961 410.307648,58.229439 
	C410.307831,56.530621 410.307709,54.831802 410.307709,53.132988 
	C412.246613,54.313488 413.052765,55.663841 413.752075,57.067444 
	C422.803375,75.234619 431.842926,93.407661 440.876190,111.583801 
	C442.524200,114.899742 444.029205,118.397629 448.548096,118.429482 
	C453.030426,118.461090 454.727692,115.134399 456.373230,111.764771 
	C465.278046,93.530296 474.188568,75.298553 483.115601,57.074924 
	C483.999725,55.270035 485.009247,53.526566 485.960602,51.754589 
	C486.376282,51.889893 486.791962,52.025192 487.207642,52.160496 
	C487.207642,53.910698 487.207397,55.660900 487.207642,57.411102 
	C487.210480,76.072868 487.067474,94.737053 487.376343,113.393761 
	C487.421692,116.134872 488.877319,119.891655 490.960419,121.349480 
	C495.684143,124.655258 501.086121,120.722115 501.101318,114.327042 
	C501.160706,89.333733 501.132355,64.340210 501.129486,39.346771 
	C501.128937,34.348419 501.650848,29.258236 500.843689,24.390839 
	C500.445801,21.991182 497.878815,18.715860 495.720367,18.190327 
	C493.554321,17.662951 490.478363,19.767992 488.189606,21.299685 
	C486.985413,22.105606 486.589478,24.141251 485.865479,25.639429 
	C474.793945,48.549088 463.733185,71.463982 452.653320,94.369591 
	C451.689697,96.361610 450.609253,98.297119 449.154999,101.077293 
	C443.180817,89.078239 437.716187,78.102638 431.936066,66.450546 
M707.851013,88.655144 
	C697.422791,67.631363 686.995056,46.607338 676.565979,25.583981 
	C674.470032,21.358814 672.537537,16.520596 666.496460,17.973557 
	C660.731873,19.360022 661.109070,24.302071 661.119690,28.902172 
	C661.163879,48.066818 661.136108,67.231628 661.138672,86.396378 
	C661.140015,95.895416 661.063049,105.395599 661.188293,114.893066 
	C661.264526,120.678429 666.030396,123.922325 671.059265,121.724701 
	C674.700134,120.133606 675.164734,116.894440 675.156311,113.364685 
	C675.112366,95.033295 675.140564,76.701729 675.143616,58.370220 
	C675.143921,56.640907 675.143616,54.911594 675.143616,53.182281 
	C677.178711,54.461040 678.103333,55.937130 678.875793,57.488983 
	C687.926514,75.670891 696.960327,93.861229 705.982544,112.057304 
	C707.577332,115.273582 709.241394,118.389404 713.495911,118.389626 
	C717.720215,118.389839 719.482178,115.374191 721.067810,112.123421 
	C728.438416,97.013100 735.817810,81.907059 743.221252,66.812843 
	C745.668396,61.823647 748.197205,56.874516 750.688660,51.907066 
	C751.153931,51.997055 751.619202,52.087048 752.084473,52.177036 
	C752.084473,57.713615 752.083679,63.250191 752.084595,68.786766 
	C752.087036,83.951920 752.029358,99.117455 752.123535,114.282036 
	C752.160400,120.222008 755.907288,123.390701 760.982056,121.985054 
	C765.061523,120.855095 766.071777,117.766632 766.063171,113.886421 
	C766.009949,89.888931 766.039917,65.891251 766.039307,41.893635 
	C766.039185,36.227577 766.086182,30.560650 766.001099,24.895784 
	C765.947754,21.345795 764.227234,18.737913 760.706299,17.937426 
	C757.290833,17.160946 754.460022,18.338282 752.784424,21.621201 
	C751.800110,23.549791 750.842285,25.492348 749.898682,27.441296 
	C738.946289,50.062340 728.003296,72.687965 717.041077,95.304237 
	C716.226807,96.984085 715.283142,98.601227 714.019836,100.955360 
	C711.731689,96.428574 709.939819,92.883591 707.851013,88.655144 
M140.877670,24.184319 
	C140.020813,19.828421 137.564407,17.118343 132.945251,17.798515 
	C128.603668,18.437813 127.048546,21.694187 127.031494,25.813799 
	C127.026665,26.980333 127.024933,28.146889 127.024902,29.313435 
	C127.024483,49.811378 127.024551,70.309326 127.024506,90.807266 
	C127.024498,92.508224 127.024513,94.209183 127.024513,95.910141 
	C124.369476,94.397858 122.985046,92.601654 121.624931,90.787224 
	C104.543457,68.000038 87.460152,45.214218 70.392899,22.416382 
	C68.067795,19.310591 65.334167,16.840818 61.168480,18.023346 
	C56.774738,19.270613 56.381126,22.958687 56.389111,26.848473 
	C56.433235,48.346222 56.405327,69.844116 56.409496,91.341957 
	C56.411079,99.507629 56.333199,107.675171 56.486641,115.838196 
	C56.562943,119.897484 58.672237,122.599152 62.995583,122.391571 
	C67.095055,122.194740 69.960358,120.214333 70.078522,115.622955 
	C70.117104,114.123955 70.114349,112.623642 70.114494,111.123932 
	C70.116531,90.126038 70.111298,69.128143 70.126373,48.130257 
	C70.127327,46.801903 70.281136,45.473656 70.436333,42.980877 
	C72.575462,45.697964 73.936920,47.360558 75.227417,49.076523 
	C92.444168,71.969688 109.698479,94.834938 126.808678,117.807510 
	C129.354401,121.225456 132.198853,123.414734 136.422195,122.065315 
	C140.722244,120.691376 140.959427,116.891777 140.954254,113.054062 
	C140.914825,83.723755 140.924973,54.393379 140.877670,24.184319 
M528.034241,66.500000 
	C528.035461,82.325371 527.995667,98.150902 528.059448,113.976021 
	C528.082642,119.745949 530.108704,122.355392 535.609863,122.413773 
	C555.429871,122.624107 575.254333,122.610764 595.074890,122.434097 
	C600.309570,122.387451 602.579163,119.819550 602.349976,115.597679 
	C602.126404,111.479294 599.739563,109.666817 594.225159,109.654472 
	C578.732971,109.619797 563.240723,109.641853 547.748474,109.641556 
	C545.976135,109.641525 544.203735,109.641563 542.336426,109.641563 
	C542.336426,98.187111 542.336426,87.292641 542.336426,76.104248 
	C544.297180,76.104248 545.938293,76.104378 547.579346,76.104225 
	C558.074097,76.103241 568.569214,76.158714 579.063354,76.077293 
	C584.300293,76.036667 587.466553,73.395630 587.376648,69.466202 
	C587.287048,65.551910 584.088074,63.138809 578.822937,63.040894 
	C577.157654,63.009926 575.491333,63.035259 573.825500,63.035248 
	C563.380615,63.035168 552.935791,63.035210 542.324829,63.035210 
	C542.324829,51.960205 542.324829,41.393578 542.324829,30.492012 
	C556.944397,30.492012 571.256165,30.504433 585.567932,30.483435 
	C589.229370,30.478064 592.897644,30.485315 596.550049,30.270056 
	C599.963806,30.068859 602.107483,28.340467 602.339722,24.670378 
	C602.562683,21.145828 600.974121,18.894756 597.640259,18.000877 
	C596.223511,17.621037 594.684021,17.588755 593.200073,17.586678 
	C574.709351,17.560789 556.218628,17.556763 537.727905,17.575558 
	C530.169067,17.583241 528.057617,19.751778 528.042236,27.519085 
	C528.017090,40.179348 528.034668,52.839691 528.034241,66.500000 
M979.085632,58.310539 
	C979.085632,49.198685 979.085632,40.086830 979.085632,30.556339 
	C995.605469,30.556339 1011.416321,30.570381 1027.227173,30.540941 
	C1029.553345,30.536610 1031.892700,30.443609 1034.202271,30.182707 
	C1037.502441,29.809895 1039.799438,27.706863 1039.162720,24.545450 
	C1038.689453,22.195694 1036.722290,19.891685 1034.857422,18.181259 
	C1033.874146,17.279472 1031.685669,17.538382 1030.040771,17.535002 
	C1011.709229,17.497335 993.377686,17.496796 975.046143,17.517157 
	C967.201721,17.525867 965.053162,19.721935 965.049133,27.718792 
	C965.035034,55.716084 965.039551,83.713379 965.044006,111.710678 
	C965.045471,120.637848 966.932922,122.570549 975.873901,122.587112 
	C993.538818,122.619827 1011.203857,122.615097 1028.868652,122.570412 
	C1030.851318,122.565399 1033.168823,122.774986 1034.728882,121.859192 
	C1036.611328,120.754135 1038.703979,118.764595 1039.193237,116.784271 
	C1040.254761,112.487541 1037.241455,109.719414 1031.970825,109.695061 
	C1016.305969,109.622665 1000.640625,109.666748 984.975464,109.665352 
	C983.193848,109.665199 981.412231,109.665337 979.443726,109.665337 
	C979.443726,98.170525 979.443726,87.296852 979.443726,76.100372 
	C981.610474,76.100372 983.421204,76.101143 985.231934,76.100250 
	C995.730896,76.095070 1006.239075,76.322105 1016.721802,75.906998 
	C1019.097351,75.812927 1021.931091,73.938660 1023.507751,72.022881 
	C1024.455078,70.871674 1024.157959,67.181580 1023.037659,66.182137 
	C1021.138428,64.487762 1018.168396,63.245155 1015.608582,63.169891 
	C1004.785645,62.851654 993.947083,62.956245 983.116333,63.085697 
	C980.237122,63.120106 978.576355,62.498802 979.085632,58.310539 
M221.513367,29.904037 
	C227.693542,32.583817 233.985519,35.037975 240.013672,38.024582 
	C243.877731,39.939011 247.623642,39.855976 249.776932,36.709846 
	C252.158081,33.230808 251.398972,30.092411 248.351685,27.411156 
	C247.229340,26.423641 246.035919,25.493721 244.780243,24.684443 
	C225.078171,11.986419 199.158310,13.573411 180.956863,28.566593 
	C159.131790,46.544689 155.025818,79.622559 171.861801,101.836784 
	C189.910248,125.650787 222.235153,131.102463 246.118988,114.360435 
	C250.749481,111.114563 251.961182,107.514519 249.637573,103.906334 
	C247.271332,100.231956 243.625488,99.840515 238.814117,103.102898 
	C232.169556,107.608315 225.040100,110.110313 216.906494,110.386780 
	C200.152969,110.956253 187.767349,103.524872 179.960007,89.349251 
	C172.109909,75.096008 172.840271,60.284084 182.172897,46.814671 
	C191.366211,33.546318 204.528107,27.921125 221.513367,29.904037 
M812.258179,41.658508 
	C806.528625,55.306438 800.776489,68.944939 795.077026,82.605423 
	C790.915344,92.580147 786.781799,102.567093 782.720154,112.582825 
	C781.122559,116.522369 781.924438,119.887161 785.998108,121.773094 
	C789.672302,123.474052 793.374878,121.778938 795.450928,117.719383 
	C795.827026,116.984108 796.070618,116.181618 796.384216,115.413773 
	C805.878784,92.165390 815.371460,68.916222 824.877319,45.672459 
	C825.440125,44.296223 826.109314,42.963535 827.274170,40.420208 
	C830.523865,48.450829 833.217163,55.049072 835.866638,61.664825 
	C843.099915,79.726448 850.286194,97.806961 857.553528,115.854843 
	C859.867859,121.602524 863.306519,123.519623 867.744324,121.814720 
	C871.971130,120.190834 872.895752,116.317093 870.436829,110.351822 
	C869.359253,107.737572 868.190247,105.161148 867.097961,102.552818 
	C856.177307,76.475433 845.272400,50.391464 834.338806,24.319508 
	C832.889587,20.863779 831.284729,17.565208 826.623108,17.745527 
	C822.267944,17.913986 820.835571,21.081892 819.468994,24.381407 
	C817.178345,29.912046 814.901428,35.448357 812.258179,41.658508 
M930.494873,17.656544 
	C911.338135,17.657192 892.181274,17.626305 873.024658,17.679260 
	C867.826050,17.693632 865.179810,19.949902 865.163940,24.014839 
	C865.147827,28.144857 867.669983,30.328495 872.932007,30.395329 
	C880.593506,30.492640 888.262756,30.598364 895.917419,30.351227 
	C899.627808,30.231434 900.800903,31.373732 900.759399,35.146912 
	C900.574097,51.969536 900.677673,68.795357 900.679443,85.620018 
	C900.680481,95.448280 900.605835,105.277496 900.723511,115.104401 
	C900.784058,120.161293 904.094543,122.926498 908.777039,122.108406 
	C913.654785,121.256203 914.407898,117.745659 914.399536,113.541916 
	C914.348206,87.722000 914.502808,61.900745 914.263184,36.082954 
	C914.218933,31.313406 915.736755,30.134731 920.214966,30.333181 
	C927.695923,30.664690 935.202881,30.396732 942.698914,30.403616 
	C946.882690,30.407459 949.354126,28.376385 949.665833,24.206215 
	C949.954529,20.344690 947.147095,17.842249 942.485229,17.686857 
	C938.824402,17.564833 935.156494,17.658432 930.494873,17.656544 
M310.007751,22.429337 
	C285.140686,26.081993 266.573303,45.231743 265.018433,68.829765 
	C263.352234,94.117599 278.620758,116.425941 301.997620,122.858894 
	C326.024597,129.470734 350.324860,118.843613 361.768982,96.360199 
	C367.280609,85.531853 368.776794,74.059334 365.643005,61.730995 
	C349.233856,65.513580 333.317444,69.182571 316.317200,73.101410 
	C321.162842,56.036110 325.632660,40.294437 330.489471,23.189802 
	C323.345673,22.870579 317.127045,22.592697 310.007751,22.429337 
M15.600669,49.499805 
	C15.602106,70.990898 15.572384,92.482063 15.626443,113.973022 
	C15.640311,119.486710 18.284389,122.486420 22.662472,122.366158 
	C26.887419,122.250092 29.324036,119.457153 29.334957,114.105072 
	C29.394796,84.784019 29.395374,55.462719 29.336254,26.141663 
	C29.325064,20.591377 26.664858,17.628172 22.297203,17.743237 
	C17.986685,17.856796 15.662587,20.824133 15.616554,26.509026 
	C15.557202,33.838844 15.601172,41.169498 15.600669,49.499805 
M356.879181,58.188210 
	C362.291229,56.902550 367.703278,55.616886 373.014252,54.355236 
	C370.211761,34.890686 350.440247,18.433889 337.465912,17.148476 
	C332.914215,33.036629 328.334564,49.022301 323.459167,66.040352 
	C335.131470,63.310581 345.601074,60.862080 356.879181,58.188210 
z"/>
<path fill="#101010" opacity="1.000000" stroke="none" 
	d="
M432.093811,66.788788 
	C437.716187,78.102638 443.180817,89.078239 449.154999,101.077293 
	C450.609253,98.297119 451.689697,96.361610 452.653320,94.369591 
	C463.733185,71.463982 474.793945,48.549088 485.865479,25.639429 
	C486.589478,24.141251 486.985413,22.105606 488.189606,21.299685 
	C490.478363,19.767992 493.554321,17.662951 495.720367,18.190327 
	C497.878815,18.715860 500.445801,21.991182 500.843689,24.390839 
	C501.650848,29.258236 501.128937,34.348419 501.129486,39.346771 
	C501.132355,64.340210 501.160706,89.333733 501.101318,114.327042 
	C501.086121,120.722115 495.684143,124.655258 490.960419,121.349480 
	C488.877319,119.891655 487.421692,116.134872 487.376343,113.393761 
	C487.067474,94.737053 487.210480,76.072868 487.207642,57.411102 
	C487.207397,55.660900 487.207642,53.910698 487.207642,52.160496 
	C486.791962,52.025192 486.376282,51.889893 485.960602,51.754589 
	C485.009247,53.526566 483.999725,55.270035 483.115601,57.074924 
	C474.188568,75.298553 465.278046,93.530296 456.373230,111.764771 
	C454.727692,115.134399 453.030426,118.461090 448.548096,118.429482 
	C444.029205,118.397629 442.524200,114.899742 440.876190,111.583801 
	C431.842926,93.407661 422.803375,75.234619 413.752075,57.067444 
	C413.052765,55.663841 412.246613,54.313488 410.307709,53.132988 
	C410.307709,54.831802 410.307831,56.530621 410.307648,58.229439 
	C410.305969,76.557961 410.450684,94.888924 410.146057,113.212410 
	C410.099854,115.990181 408.714874,119.726234 406.643738,121.289925 
	C402.034027,124.770111 396.277161,120.909698 396.234161,114.618896 
	C396.135071,100.123375 396.202728,85.626717 396.202728,71.130516 
	C396.202728,56.467697 396.260620,41.804504 396.166016,27.142298 
	C396.139130,22.974220 396.886963,19.262617 401.333832,17.989758 
	C406.114563,16.621344 408.712463,19.635611 410.640533,23.535475 
	C417.717926,37.850933 424.834351,52.147114 432.093811,66.788788 
z"/>
<path fill="#BD2C33" opacity="1.000000" stroke="none" 
	d="
M707.999512,88.996880 
	C709.939819,92.883591 711.731689,96.428574 714.019836,100.955360 
	C715.283142,98.601227 716.226807,96.984085 717.041077,95.304237 
	C728.003296,72.687965 738.946289,50.062340 749.898682,27.441296 
	C750.842285,25.492348 751.800110,23.549791 752.784424,21.621201 
	C754.460022,18.338282 757.290833,17.160946 760.706299,17.937426 
	C764.227234,18.737913 765.947754,21.345795 766.001099,24.895784 
	C766.086182,30.560650 766.039185,36.227577 766.039307,41.893635 
	C766.039917,65.891251 766.009949,89.888931 766.063171,113.886421 
	C766.071777,117.766632 765.061523,120.855095 760.982056,121.985054 
	C755.907288,123.390701 752.160400,120.222008 752.123535,114.282036 
	C752.029358,99.117455 752.087036,83.951920 752.084595,68.786766 
	C752.083679,63.250191 752.084473,57.713615 752.084473,52.177036 
	C751.619202,52.087048 751.153931,51.997055 750.688660,51.907066 
	C748.197205,56.874516 745.668396,61.823647 743.221252,66.812843 
	C735.817810,81.907059 728.438416,97.013100 721.067810,112.123421 
	C719.482178,115.374191 717.720215,118.389839 713.495911,118.389626 
	C709.241394,118.389404 707.577332,115.273582 705.982544,112.057304 
	C696.960327,93.861229 687.926514,75.670891 678.875793,57.488983 
	C678.103333,55.937130 677.178711,54.461040 675.143616,53.182281 
	C675.143616,54.911594 675.143921,56.640907 675.143616,58.370220 
	C675.140564,76.701729 675.112366,95.033295 675.156311,113.364685 
	C675.164734,116.894440 674.700134,120.133606 671.059265,121.724701 
	C666.030396,123.922325 661.264526,120.678429 661.188293,114.893066 
	C661.063049,105.395599 661.140015,95.895416 661.138672,86.396378 
	C661.136108,67.231628 661.163879,48.066818 661.119690,28.902172 
	C661.109070,24.302071 660.731873,19.360022 666.496460,17.973557 
	C672.537537,16.520596 674.470032,21.358814 676.565979,25.583981 
	C686.995056,46.607338 697.422791,67.631363 707.999512,88.996880 
z"/>
<path fill="#111111" opacity="1.000000" stroke="none" 
	d="
M140.898682,24.623672 
	C140.924973,54.393379 140.914825,83.723755 140.954254,113.054062 
	C140.959427,116.891777 140.722244,120.691376 136.422195,122.065315 
	C132.198853,123.414734 129.354401,121.225456 126.808678,117.807510 
	C109.698479,94.834938 92.444168,71.969688 75.227417,49.076523 
	C73.936920,47.360558 72.575462,45.697964 70.436333,42.980877 
	C70.281136,45.473656 70.127327,46.801903 70.126373,48.130257 
	C70.111298,69.128143 70.116531,90.126038 70.114494,111.123932 
	C70.114349,112.623642 70.117104,114.123955 70.078522,115.622955 
	C69.960358,120.214333 67.095055,122.194740 62.995583,122.391571 
	C58.672237,122.599152 56.562943,119.897484 56.486641,115.838196 
	C56.333199,107.675171 56.411079,99.507629 56.409496,91.341957 
	C56.405327,69.844116 56.433235,48.346222 56.389111,26.848473 
	C56.381126,22.958687 56.774738,19.270613 61.168480,18.023346 
	C65.334167,16.840818 68.067795,19.310591 70.392899,22.416382 
	C87.460152,45.214218 104.543457,68.000038 121.624931,90.787224 
	C122.985046,92.601654 124.369476,94.397858 127.024513,95.910141 
	C127.024513,94.209183 127.024498,92.508224 127.024506,90.807266 
	C127.024551,70.309326 127.024483,49.811378 127.024902,29.313435 
	C127.024933,28.146889 127.026665,26.980333 127.031494,25.813799 
	C127.048546,21.694187 128.603668,18.437813 132.945251,17.798515 
	C137.564407,17.118343 140.020813,19.828421 140.898682,24.623672 
z"/>
<path fill="#0E0E0E" opacity="1.000000" stroke="none" 
	d="
M528.034241,66.000000 
	C528.034668,52.839691 528.017090,40.179348 528.042236,27.519085 
	C528.057617,19.751778 530.169067,17.583241 537.727905,17.575558 
	C556.218628,17.556763 574.709351,17.560789 593.200073,17.586678 
	C594.684021,17.588755 596.223511,17.621037 597.640259,18.000877 
	C600.974121,18.894756 602.562683,21.145828 602.339722,24.670378 
	C602.107483,28.340467 599.963806,30.068859 596.550049,30.270056 
	C592.897644,30.485315 589.229370,30.478064 585.567932,30.483435 
	C571.256165,30.504433 556.944397,30.492012 542.324829,30.492012 
	C542.324829,41.393578 542.324829,51.960205 542.324829,63.035210 
	C552.935791,63.035210 563.380615,63.035168 573.825500,63.035248 
	C575.491333,63.035259 577.157654,63.009926 578.822937,63.040894 
	C584.088074,63.138809 587.287048,65.551910 587.376648,69.466202 
	C587.466553,73.395630 584.300293,76.036667 579.063354,76.077293 
	C568.569214,76.158714 558.074097,76.103241 547.579346,76.104225 
	C545.938293,76.104378 544.297180,76.104248 542.336426,76.104248 
	C542.336426,87.292641 542.336426,98.187111 542.336426,109.641563 
	C544.203735,109.641563 545.976135,109.641525 547.748474,109.641556 
	C563.240723,109.641853 578.732971,109.619797 594.225159,109.654472 
	C599.739563,109.666817 602.126404,111.479294 602.349976,115.597679 
	C602.579163,119.819550 600.309570,122.387451 595.074890,122.434097 
	C575.254333,122.610764 555.429871,122.624107 535.609863,122.413773 
	C530.108704,122.355392 528.082642,119.745949 528.059448,113.976021 
	C527.995667,98.150902 528.035461,82.325371 528.034241,66.000000 
z"/>
<path fill="#BD2A32" opacity="1.000000" stroke="none" 
	d="
M979.085815,58.786232 
	C978.576355,62.498802 980.237122,63.120106 983.116333,63.085697 
	C993.947083,62.956245 1004.785645,62.851654 1015.608582,63.169891 
	C1018.168396,63.245155 1021.138428,64.487762 1023.037659,66.182137 
	C1024.157959,67.181580 1024.455078,70.871674 1023.507751,72.022881 
	C1021.931091,73.938660 1019.097351,75.812927 1016.721802,75.906998 
	C1006.239075,76.322105 995.730896,76.095070 985.231934,76.100250 
	C983.421204,76.101143 981.610474,76.100372 979.443726,76.100372 
	C979.443726,87.296852 979.443726,98.170525 979.443726,109.665337 
	C981.412231,109.665337 983.193848,109.665199 984.975464,109.665352 
	C1000.640625,109.666748 1016.305969,109.622665 1031.970825,109.695061 
	C1037.241455,109.719414 1040.254761,112.487541 1039.193237,116.784271 
	C1038.703979,118.764595 1036.611328,120.754135 1034.728882,121.859192 
	C1033.168823,122.774986 1030.851318,122.565399 1028.868652,122.570412 
	C1011.203857,122.615097 993.538818,122.619827 975.873901,122.587112 
	C966.932922,122.570549 965.045471,120.637848 965.044006,111.710678 
	C965.039551,83.713379 965.035034,55.716084 965.049133,27.718792 
	C965.053162,19.721935 967.201721,17.525867 975.046143,17.517157 
	C993.377686,17.496796 1011.709229,17.497335 1030.040771,17.535002 
	C1031.685669,17.538382 1033.874146,17.279472 1034.857422,18.181259 
	C1036.722290,19.891685 1038.689453,22.195694 1039.162720,24.545450 
	C1039.799438,27.706863 1037.502441,29.809895 1034.202271,30.182707 
	C1031.892700,30.443609 1029.553345,30.536610 1027.227173,30.540941 
	C1011.416321,30.570381 995.605469,30.556339 979.085632,30.556339 
	C979.085632,40.086830 979.085632,49.198685 979.085815,58.786232 
z"/>
<path fill="#101010" opacity="1.000000" stroke="none" 
	d="
M221.105637,29.813419 
	C204.528107,27.921125 191.366211,33.546318 182.172897,46.814671 
	C172.840271,60.284084 172.109909,75.096008 179.960007,89.349251 
	C187.767349,103.524872 200.152969,110.956253 216.906494,110.386780 
	C225.040100,110.110313 232.169556,107.608315 238.814117,103.102898 
	C243.625488,99.840515 247.271332,100.231956 249.637573,103.906334 
	C251.961182,107.514519 250.749481,111.114563 246.118988,114.360435 
	C222.235153,131.102463 189.910248,125.650787 171.861801,101.836784 
	C155.025818,79.622559 159.131790,46.544689 180.956863,28.566593 
	C199.158310,13.573411 225.078171,11.986419 244.780243,24.684443 
	C246.035919,25.493721 247.229340,26.423641 248.351685,27.411156 
	C251.398972,30.092411 252.158081,33.230808 249.776932,36.709846 
	C247.623642,39.855976 243.877731,39.939011 240.013672,38.024582 
	C233.985519,35.037975 227.693542,32.583817 221.105637,29.813419 
z"/>
<path fill="#BD2C34" opacity="1.000000" stroke="none" 
	d="
M812.438477,41.320389 
	C814.901428,35.448357 817.178345,29.912046 819.468994,24.381407 
	C820.835571,21.081892 822.267944,17.913986 826.623108,17.745527 
	C831.284729,17.565208 832.889587,20.863779 834.338806,24.319508 
	C845.272400,50.391464 856.177307,76.475433 867.097961,102.552818 
	C868.190247,105.161148 869.359253,107.737572 870.436829,110.351822 
	C872.895752,116.317093 871.971130,120.190834 867.744324,121.814720 
	C863.306519,123.519623 859.867859,121.602524 857.553528,115.854843 
	C850.286194,97.806961 843.099915,79.726448 835.866638,61.664825 
	C833.217163,55.049072 830.523865,48.450829 827.274170,40.420208 
	C826.109314,42.963535 825.440125,44.296223 824.877319,45.672459 
	C815.371460,68.916222 805.878784,92.165390 796.384216,115.413773 
	C796.070618,116.181618 795.827026,116.984108 795.450928,117.719383 
	C793.374878,121.778938 789.672302,123.474052 785.998108,121.773094 
	C781.924438,119.887161 781.122559,116.522369 782.720154,112.582825 
	C786.781799,102.567093 790.915344,92.580147 795.077026,82.605423 
	C800.776489,68.944939 806.528625,55.306438 812.438477,41.320389 
z"/>
<path fill="#BC262E" opacity="1.000000" stroke="none" 
	d="
M930.993286,17.656391 
	C935.156494,17.658432 938.824402,17.564833 942.485229,17.686857 
	C947.147095,17.842249 949.954529,20.344690 949.665833,24.206215 
	C949.354126,28.376385 946.882690,30.407459 942.698914,30.403616 
	C935.202881,30.396732 927.695923,30.664690 920.214966,30.333181 
	C915.736755,30.134731 914.218933,31.313406 914.263184,36.082954 
	C914.502808,61.900745 914.348206,87.722000 914.399536,113.541916 
	C914.407898,117.745659 913.654785,121.256203 908.777039,122.108406 
	C904.094543,122.926498 900.784058,120.161293 900.723511,115.104401 
	C900.605835,105.277496 900.680481,95.448280 900.679443,85.620018 
	C900.677673,68.795357 900.574097,51.969536 900.759399,35.146912 
	C900.800903,31.373732 899.627808,30.231434 895.917419,30.351227 
	C888.262756,30.598364 880.593506,30.492640 872.932007,30.395329 
	C867.669983,30.328495 865.147827,28.144857 865.163940,24.014839 
	C865.179810,19.949902 867.826050,17.693632 873.024658,17.679260 
	C892.181274,17.626305 911.338135,17.657192 930.993286,17.656391 
z"/>
<path fill="#C33E45" opacity="1.000000" stroke="none" 
	d="
M310.458069,22.372076 
	C317.127045,22.592697 323.345673,22.870579 330.489471,23.189802 
	C325.632660,40.294437 321.162842,56.036110 316.317200,73.101410 
	C333.317444,69.182571 349.233856,65.513580 365.643005,61.730995 
	C368.776794,74.059334 367.280609,85.531853 361.768982,96.360199 
	C350.324860,118.843613 326.024597,129.470734 301.997620,122.858894 
	C278.620758,116.425941 263.352234,94.117599 265.018433,68.829765 
	C266.573303,45.231743 285.140686,26.081993 310.458069,22.372076 
M362.081940,70.607918 
	C361.219940,66.628403 358.344116,68.651161 356.495483,69.049057 
	C347.380066,71.011070 338.329926,73.274994 329.249817,75.402824 
	C322.874908,76.896721 316.488892,78.343193 309.130249,80.035690 
	C314.192169,62.087738 318.947083,45.228264 323.707031,28.350948 
	C306.552795,24.361790 287.393188,32.746777 277.354462,48.190109 
	C266.970673,64.164322 267.473480,85.548141 278.581207,100.362389 
	C291.015717,116.946053 311.337708,123.506088 330.593628,117.152191 
	C349.997772,110.749382 362.184357,93.133347 362.081940,70.607918 
z"/>
<path fill="#0A0A0A" opacity="1.000000" stroke="none" 
	d="
M15.600657,48.999802 
	C15.601172,41.169498 15.557202,33.838844 15.616554,26.509026 
	C15.662587,20.824133 17.986685,17.856796 22.297203,17.743237 
	C26.664858,17.628172 29.325064,20.591377 29.336254,26.141663 
	C29.395374,55.462719 29.394796,84.784019 29.334957,114.105072 
	C29.324036,119.457153 26.887419,122.250092 22.662472,122.366158 
	C18.284389,122.486420 15.640311,119.486710 15.626443,113.973022 
	C15.572384,92.482063 15.602106,70.990898 15.600657,48.999802 
z"/>
<path fill="#C33E45" opacity="1.000000" stroke="none" 
	d="
M356.474915,58.300896 
	C345.601074,60.862080 335.131470,63.310581 323.459167,66.040352 
	C328.334564,49.022301 332.914215,33.036629 337.465912,17.148476 
	C350.440247,18.433889 370.211761,34.890686 373.014252,54.355236 
	C367.703278,55.616886 362.291229,56.902550 356.474915,58.300896 
M342.024414,56.580555 
	C350.228912,54.621490 358.433380,52.662430 367.227142,50.562656 
	C362.365173,37.416286 354.000824,28.534357 341.002380,23.047749 
	C337.589630,35.139614 334.307404,46.769176 330.803314,59.184715 
	C335.103912,58.185768 338.162720,57.475269 342.024414,56.580555 
z"/>
<path fill="#FBF8F8" opacity="1.000000" stroke="none" 
	d="
M362.111084,71.079330 
	C362.184357,93.133347 349.997772,110.749382 330.593628,117.152191 
	C311.337708,123.506088 291.015717,116.946053 278.581207,100.362389 
	C267.473480,85.548141 266.970673,64.164322 277.354462,48.190109 
	C287.393188,32.746777 306.552795,24.361790 323.707031,28.350948 
	C318.947083,45.228264 314.192169,62.087738 309.130249,80.035690 
	C316.488892,78.343193 322.874908,76.896721 329.249817,75.402824 
	C338.329926,73.274994 347.380066,71.011070 356.495483,69.049057 
	C358.344116,68.651161 361.219940,66.628403 362.111084,71.079330 
z"/>
<path fill="#F9F2F3" opacity="1.000000" stroke="none" 
	d="
M341.622955,56.672661 
	C338.162720,57.475269 335.103912,58.185768 330.803314,59.184715 
	C334.307404,46.769176 337.589630,35.139614 341.002380,23.047749 
	C354.000824,28.534357 362.365173,37.416286 367.227142,50.562656 
	C358.433380,52.662430 350.228912,54.621490 341.622955,56.672661 
z"/>
</svg>