<svg version="1.1" id="Layer_1" xmlns="http://www.w3.org/2000/svg" xmlns:xlink="http://www.w3.org/1999/xlink" x="0px" y="0px"
	 width="100%" viewBox="0 0 1404 178" enable-background="new 0 0 1404 178" xml:space="preserve">
<path fill="#FEFEFE" opacity="1.000000" stroke="none" 
	d="
M1042.000000,179.000000 
	C694.666687,179.000000 347.833344,179.000000 1.000000,179.000000 
	C1.000000,119.666664 1.000000,60.333332 1.000000,1.000000 
	C469.000000,1.000000 937.000000,1.000000 1405.000000,1.000000 
	C1405.000000,60.333332 1405.000000,119.666664 1405.000000,179.000000 
	C1284.166626,179.000000 1163.333374,179.000000 1042.000000,179.000000 
M669.502014,145.390076 
	C669.502014,111.068085 669.514465,76.746071 669.481323,42.424114 
	C669.478271,39.265236 669.286255,36.097378 669.000366,32.950191 
	C668.625305,28.822556 666.193420,26.290405 662.297424,25.175398 
	C658.484436,24.084156 654.881531,24.552834 652.350525,27.829979 
	C650.338135,30.435560 648.520813,33.268753 647.079529,36.226311 
	C635.056030,60.899612 623.150330,85.630318 611.184937,110.331993 
	C607.392334,118.161514 603.526672,125.955673 599.482727,134.197540 
	C582.778320,100.771217 566.361877,67.884132 549.884705,35.027508 
	C548.703857,32.672821 547.246033,30.409935 545.621948,28.335329 
	C542.994141,24.978582 539.349792,24.043451 535.312317,25.049902 
	C531.165833,26.083523 528.775146,28.976988 528.155273,33.118214 
	C527.713623,36.069099 527.534668,39.086067 527.539917,42.073009 
	C527.602112,77.394524 527.718201,112.715958 527.831299,148.037384 
	C527.839844,150.702469 527.814819,153.376099 528.011780,156.030441 
	C528.444275,161.860443 531.622925,165.288681 536.814941,165.728592 
	C542.345642,166.197205 546.629639,163.375778 547.917358,157.930313 
	C548.636963,154.887222 548.943848,151.681198 548.956238,148.546661 
	C549.042114,126.887527 548.996338,105.227875 549.013489,83.568413 
	C549.014587,82.189201 549.188660,80.810112 549.364990,78.212379 
	C551.672791,81.517509 553.508118,83.674500 554.818176,86.113640 
	C558.283997,92.566246 561.560608,99.121788 564.843506,105.670990 
	C572.679016,121.302643 580.444763,136.969330 588.300598,152.590714 
	C591.646301,159.243713 595.589844,161.983826 601.180908,159.837021 
	C604.434753,158.587646 607.565247,155.150574 609.224365,151.914902 
	C620.678772,129.576660 631.711487,107.022377 642.942627,84.569008 
	C644.075378,82.304436 645.625854,80.248787 646.982422,78.096176 
	C648.547424,80.955353 649.220886,83.385162 649.238892,85.819809 
	C649.392639,106.643150 649.415222,127.467415 649.511963,148.291245 
	C649.525879,151.287018 649.507080,154.310059 649.887512,157.271149 
	C650.589905,162.738785 654.530334,165.982788 659.797546,165.769058 
	C665.553772,165.535522 668.706726,162.628494 669.164734,156.838791 
	C669.440186,153.356918 669.400208,149.850082 669.502014,145.390076 
M881.998108,43.536659 
	C881.998108,79.366699 881.994324,115.196739 882.009155,151.026779 
	C882.009949,152.854202 881.993774,154.710739 882.289368,156.503616 
	C883.252075,162.341934 885.996643,164.963638 891.337524,165.388458 
	C896.904297,165.831238 900.587830,163.548370 902.152100,157.952652 
	C902.983643,154.978149 903.116516,151.737762 903.127563,148.615845 
	C903.205444,126.618271 903.164978,104.620277 903.181274,82.622429 
	C903.182251,81.256653 903.344055,79.890999 903.519836,77.131561 
	C905.590881,79.949181 907.116638,81.513268 908.049683,83.374451 
	C916.247070,99.727310 924.324524,116.140244 932.468689,132.519852 
	C935.947876,139.517181 939.549805,146.453766 943.002258,153.464081 
	C945.096375,157.716080 948.241577,160.343582 953.112427,160.300903 
	C957.994751,160.258133 961.119995,157.545761 963.086487,153.256317 
	C963.709534,151.897202 964.443726,150.589417 965.111450,149.250366 
	C976.687439,126.034897 988.257324,102.816399 999.844421,79.606468 
	C1000.516235,78.260780 1001.323547,76.982773 1002.067749,75.673264 
	C1003.392029,79.011566 1003.793518,81.974632 1003.800598,84.938644 
	C1003.855225,107.769623 1003.793762,130.600891 1003.859070,153.431824 
	C1003.878906,160.364624 1005.863647,163.680573 1010.332642,165.050201 
	C1018.148926,167.445694 1023.767151,163.115829 1023.789612,154.154205 
	C1023.888794,114.658318 1023.830261,75.162041 1023.824036,35.665897 
	C1023.823914,35.000244 1023.791016,34.331585 1023.723450,33.669434 
	C1023.202698,28.567917 1019.773987,25.286243 1014.656555,24.699142 
	C1008.206299,23.959139 1005.391113,28.258232 1003.067444,33.030537 
	C988.134216,63.699837 973.301880,94.418320 958.328613,125.068031 
	C957.107727,127.567200 955.083252,129.673782 953.017639,132.537567 
	C936.579895,99.650200 920.750061,67.967216 904.900696,36.294037 
	C903.785217,34.065067 902.680725,31.804207 901.298523,29.740826 
	C898.670715,25.818048 895.065735,23.831732 890.199768,24.929901 
	C885.320923,26.031012 882.950562,29.441124 882.294250,34.072922 
	C881.899719,36.857903 882.077515,39.723984 881.998108,43.536659 
M90.459686,27.858782 
	C82.285782,21.663639 74.706963,24.663931 73.152481,34.751568 
	C72.874466,36.555679 72.765594,38.403416 72.768692,40.230690 
	C72.832184,77.705635 72.912849,115.180580 73.040833,152.655350 
	C73.047020,154.467957 73.430504,156.296448 73.788872,158.087433 
	C74.817490,163.227966 77.787888,165.860672 82.554649,165.973373 
	C87.787712,166.097122 91.800568,163.324417 92.860481,158.421432 
	C93.487495,155.520935 93.789696,152.495087 93.797470,149.524460 
	C93.866783,123.039856 93.837837,96.555000 93.837837,70.070213 
	C93.837837,68.386513 93.837837,66.702805 93.837837,65.019104 
	C96.858177,66.635178 98.821655,68.410522 100.387604,70.485832 
	C122.445480,99.718651 144.430008,129.006836 166.504471,158.227081 
	C168.184860,160.451431 170.192230,162.557999 172.423950,164.211304 
	C178.094284,168.411957 185.663162,165.408432 186.987137,158.486313 
	C187.546082,155.563965 187.798279,152.539658 187.802612,149.561127 
	C187.856018,112.915588 187.858246,76.269905 187.797043,39.624401 
	C187.792374,36.821754 187.534821,33.932579 186.813339,31.239393 
	C185.841736,27.612589 183.447220,25.300440 179.383545,24.911501 
	C172.170547,24.221132 168.019592,27.661257 167.926453,35.851295 
	C167.670822,58.332901 167.803574,80.818939 167.786331,103.303223 
	C167.780365,111.075188 167.785370,118.847168 167.785370,128.039490 
	C165.726639,126.104195 164.348099,125.132103 163.380768,123.849808 
	C151.251709,107.771622 139.237015,91.607040 127.081841,75.548744 
	C115.129990,59.759083 103.051003,44.065647 90.459686,27.858782 
M1328.519775,146.831238 
	C1324.689331,146.779541 1320.836426,146.972885 1317.033569,146.622482 
	C1310.223022,145.994919 1309.021729,144.683090 1308.913696,137.878525 
	C1308.781250,129.549255 1308.778687,121.214577 1308.915405,112.885429 
	C1309.033325,105.696129 1310.693359,104.085854 1317.891968,104.036827 
	C1331.223511,103.946030 1344.556274,104.042557 1357.887573,103.937340 
	C1365.108643,103.880348 1369.060181,100.862175 1369.376831,95.523399 
	C1369.752808,89.189041 1366.476685,85.396278 1358.891602,85.012680 
	C1345.924683,84.356918 1332.924194,84.383080 1319.940674,84.022293 
	C1311.673096,83.792542 1309.370117,81.483849 1309.107544,73.117096 
	C1308.898315,66.456032 1308.903198,59.787300 1308.876343,53.121712 
	C1308.845825,45.520317 1310.224121,44.046795 1317.873413,44.002213 
	C1337.037720,43.890511 1356.202759,43.901585 1375.367188,43.807842 
	C1377.512939,43.797344 1379.700317,43.633408 1381.793213,43.187840 
	C1387.265991,42.022690 1389.297974,39.544182 1389.389404,34.336132 
	C1389.482422,29.036797 1387.201904,26.001038 1381.795776,24.854422 
	C1379.054688,24.273029 1376.192017,24.043814 1373.383301,24.036068 
	C1350.552246,23.973101 1327.720581,23.945599 1304.889526,24.020782 
	C1291.478760,24.064945 1288.388062,27.195381 1288.159302,40.440254 
	C1288.153564,40.773472 1288.156006,41.106846 1288.155640,41.440147 
	C1288.103394,77.936874 1288.028320,114.433594 1288.012573,150.930328 
	C1288.007446,162.725067 1292.138306,166.914505 1303.946533,166.986725 
	C1324.943115,167.115158 1345.940796,167.182159 1366.937500,167.114761 
	C1371.585815,167.099838 1376.263428,166.640457 1380.870972,165.987000 
	C1386.377930,165.205994 1389.241211,161.825546 1389.419556,156.601837 
	C1389.596802,151.405090 1387.360474,148.822159 1381.444458,147.618713 
	C1379.665405,147.256821 1377.822021,147.064987 1376.006348,147.052414 
	C1360.508911,146.945114 1345.011230,146.897034 1328.519775,146.831238 
M703.998840,83.500000 
	C703.998840,105.821838 703.988342,128.143677 704.002991,150.465515 
	C704.011047,162.670929 707.825562,166.572174 720.037964,166.949081 
	C720.870361,166.974777 721.703308,166.997910 722.536011,166.998032 
	C743.358704,167.001038 764.181641,167.049393 785.003906,166.956985 
	C788.818726,166.940048 792.669922,166.587143 796.436584,165.973541 
	C804.886902,164.596954 808.098877,156.869797 802.442383,150.521759 
	C800.470459,148.308823 796.371765,147.045197 793.215210,146.989014 
	C774.565125,146.657074 755.906433,146.824051 737.250793,146.777191 
	C734.930786,146.771362 732.609802,146.514709 730.292114,146.337952 
	C726.033630,146.013168 724.086243,143.545166 724.072937,139.427307 
	C724.042725,130.100037 723.964539,120.771378 724.090088,111.445755 
	C724.159058,106.324486 726.283203,104.220543 731.467957,104.097992 
	C738.627136,103.928749 745.792542,104.027969 752.955261,103.999313 
	C760.450867,103.969322 767.952454,104.095016 775.440063,103.829750 
	C781.115784,103.628670 784.760803,99.962959 784.972168,94.910568 
	C785.188843,89.732162 781.489258,85.735313 775.735779,85.092979 
	C773.589722,84.853394 771.412903,84.838745 769.249146,84.816658 
	C757.256165,84.694260 745.262390,84.635124 733.269714,84.486282 
	C725.084656,84.384689 724.024841,83.292374 724.005066,75.277275 
	C723.987366,68.114311 723.988525,60.951237 724.004639,53.788269 
	C724.023926,45.220379 725.127380,44.048981 733.855042,43.999012 
	C752.344910,43.893147 770.835571,43.916645 789.325378,43.798660 
	C792.132812,43.780750 794.969788,43.471317 797.735718,42.975933 
	C802.561523,42.111614 805.160828,38.549366 804.791321,33.707493 
	C804.290527,27.145746 800.160889,24.201752 790.994629,24.182875 
	C766.673828,24.132784 742.352783,24.123350 718.032043,24.186001 
	C707.683960,24.212658 704.034729,28.006655 704.008118,38.522488 
	C703.971130,53.181576 703.998840,67.840820 703.998840,83.500000 
M332.266785,151.621506 
	C335.162842,147.791824 335.958008,143.785782 332.924652,139.692856 
	C330.220093,136.043610 326.323639,135.255432 322.183319,136.203552 
	C320.316254,136.631104 318.742920,138.202682 316.909149,138.938202 
	C309.256165,142.007828 301.768433,146.633713 293.832336,147.644623 
	C267.092712,151.050705 238.278336,135.012604 234.172791,100.815819 
	C229.146378,58.948647 270.342499,36.028744 295.770233,43.128319 
	C304.135681,45.464008 312.024841,49.644714 319.952606,53.363777 
	C326.020782,56.210491 330.266083,55.677311 333.488831,50.823936 
	C336.740204,45.927429 335.649750,40.628258 330.610565,36.836670 
	C294.467377,9.641752 239.099716,23.455393 219.974014,64.439293 
	C201.284439,104.488693 222.591980,151.535690 266.008942,164.784851 
	C289.835083,172.055634 312.112549,168.160461 332.266785,151.621506 
M1125.762817,57.724598 
	C1121.578613,48.307072 1117.829956,38.662086 1113.067993,29.546391 
	C1109.471802,22.662319 1100.649170,22.755226 1096.245361,29.214617 
	C1094.576294,31.662697 1093.311401,34.432766 1092.162476,37.181549 
	C1083.309204,58.364269 1074.515015,79.571754 1065.731689,100.783676 
	C1058.667725,117.843414 1051.512207,134.867203 1044.673706,152.017227 
	C1042.192627,158.239716 1043.898682,162.115662 1049.093750,164.484314 
	C1055.025024,167.188614 1059.891113,165.667877 1063.055176,159.978180 
	C1064.183594,157.948822 1065.088135,155.784866 1065.976074,153.633331 
	C1073.972900,134.256500 1081.935181,114.865410 1089.924438,95.485489 
	C1094.649292,84.024368 1099.404785,72.575897 1104.606323,60.011169 
	C1106.434814,63.453983 1107.945312,65.816437 1108.999634,68.367493 
	C1113.447510,79.129593 1117.732056,89.959053 1122.127075,100.743195 
	C1130.162842,120.461082 1138.111816,140.215988 1146.366821,159.841904 
	C1148.828735,165.694794 1153.898682,167.289917 1159.592651,164.923691 
	C1165.135132,162.620438 1167.013672,158.487549 1165.179810,152.404297 
	C1164.509155,150.179367 1163.741699,147.971130 1162.841187,145.829727 
	C1150.587524,116.692360 1138.302856,87.568077 1125.762817,57.724598 
M1236.564941,43.903194 
	C1245.040894,43.658863 1253.549927,43.784798 1261.980957,43.035286 
	C1267.280640,42.564156 1269.821045,39.050724 1269.833130,34.327015 
	C1269.846924,28.953352 1267.173462,25.734922 1261.658691,24.721926 
	C1259.705566,24.363165 1257.691406,24.185530 1255.704834,24.183245 
	C1226.710205,24.149878 1197.715454,24.143763 1168.720825,24.191669 
	C1166.405884,24.195496 1164.062622,24.490873 1161.783203,24.919691 
	C1157.444458,25.735920 1155.201172,28.552063 1154.908813,32.894669 
	C1154.448853,39.728600 1158.545898,43.495060 1167.288574,43.770096 
	C1175.779297,44.037209 1184.283691,43.845406 1192.780640,43.955109 
	C1201.300903,44.065105 1202.171265,44.702145 1202.219849,52.964027 
	C1202.406860,84.789108 1202.405029,116.615273 1202.507690,148.440918 
	C1202.516724,151.267288 1202.563599,154.122101 1202.956299,156.912598 
	C1203.717896,162.325623 1207.304321,165.775757 1211.992432,165.962143 
	C1217.087036,166.164703 1221.705444,162.603882 1222.788208,157.391434 
	C1223.190552,155.455429 1223.181152,153.413574 1223.189941,151.419235 
	C1223.329346,119.594376 1223.482544,87.769463 1223.537354,55.944401 
	C1223.557007,44.489620 1224.133301,43.797001 1236.564941,43.903194 
M366.380676,142.103333 
	C388.754547,172.866409 434.068085,176.497589 461.807343,155.650055 
	C483.496704,139.349350 492.742645,117.673424 490.186005,90.854897 
	C489.641937,85.147720 487.313934,83.529915 481.829376,84.778801 
	C465.635681,88.466278 449.503357,92.425499 433.292969,96.035614 
	C430.452240,96.668259 427.349731,96.125328 423.556671,96.125328 
	C428.899078,77.844597 433.938446,60.663326 438.936829,43.470142 
	C441.342926,35.193752 439.349091,31.906290 430.716522,31.043980 
	C401.350983,28.110645 377.660217,38.760109 362.197052,63.671906 
	C345.954926,89.838791 349.201996,116.314415 366.380676,142.103333 
M18.078501,147.391296 
	C18.342840,150.696320 18.409756,154.031906 18.915792,157.299500 
	C19.766624,162.793472 22.566408,165.330124 27.717346,165.731552 
	C32.949062,166.139282 36.754158,163.647964 38.109943,158.448532 
	C38.813148,155.751755 39.118755,152.878098 39.123604,150.083511 
	C39.187740,113.134697 39.178211,76.185715 39.137974,39.236832 
	C39.135464,36.931408 39.055473,34.533009 38.436348,32.340271 
	C37.056034,27.451632 33.184837,24.599123 28.620342,24.637077 
	C24.215042,24.673708 20.229803,27.787958 19.100451,32.692986 
	C18.362696,35.897213 18.052526,39.266533 18.047749,42.562622 
	C17.997572,77.181190 18.047722,111.799904 18.078501,147.391296 
M431.869843,87.406509 
	C431.503601,91.086433 433.774628,89.890526 435.649994,89.459770 
	C454.248840,85.187729 472.860901,80.972214 491.441895,76.623901 
	C498.426208,74.989449 499.160065,73.306641 496.750580,66.439560 
	C489.910095,46.944061 476.376984,33.738441 457.935669,25.200363 
	C452.111420,22.503807 448.967804,24.066429 447.139496,30.377899 
	C445.017059,37.704659 442.979584,45.056934 440.989716,52.420963 
	C437.922485,63.771900 434.927155,75.142265 431.869843,87.406509 
z"/>
<path fill="#020202" opacity="1.000000" stroke="none" 
	d="
M669.501953,145.872269 
	C669.400208,149.850082 669.440186,153.356918 669.164734,156.838791 
	C668.706726,162.628494 665.553772,165.535522 659.797546,165.769058 
	C654.530334,165.982788 650.589905,162.738785 649.887512,157.271149 
	C649.507080,154.310059 649.525879,151.287018 649.511963,148.291245 
	C649.415222,127.467415 649.392639,106.643150 649.238892,85.819809 
	C649.220886,83.385162 648.547424,80.955353 646.982422,78.096176 
	C645.625854,80.248787 644.075378,82.304436 642.942627,84.569008 
	C631.711487,107.022377 620.678772,129.576660 609.224365,151.914902 
	C607.565247,155.150574 604.434753,158.587646 601.180908,159.837021 
	C595.589844,161.983826 591.646301,159.243713 588.300598,152.590714 
	C580.444763,136.969330 572.679016,121.302643 564.843506,105.670990 
	C561.560608,99.121788 558.283997,92.566246 554.818176,86.113640 
	C553.508118,83.674500 551.672791,81.517509 549.364990,78.212379 
	C549.188660,80.810112 549.014587,82.189201 549.013489,83.568413 
	C548.996338,105.227875 549.042114,126.887527 548.956238,148.546661 
	C548.943848,151.681198 548.636963,154.887222 547.917358,157.930313 
	C546.629639,163.375778 542.345642,166.197205 536.814941,165.728592 
	C531.622925,165.288681 528.444275,161.860443 528.011780,156.030441 
	C527.814819,153.376099 527.839844,150.702469 527.831299,148.037384 
	C527.718201,112.715958 527.602112,77.394524 527.539917,42.073009 
	C527.534668,39.086067 527.713623,36.069099 528.155273,33.118214 
	C528.775146,28.976988 531.165833,26.083523 535.312317,25.049902 
	C539.349792,24.043451 542.994141,24.978582 545.621948,28.335329 
	C547.246033,30.409935 548.703857,32.672821 549.884705,35.027508 
	C566.361877,67.884132 582.778320,100.771217 599.482727,134.197540 
	C603.526672,125.955673 607.392334,118.161514 611.184937,110.331993 
	C623.150330,85.630318 635.056030,60.899612 647.079529,36.226311 
	C648.520813,33.268753 650.338135,30.435560 652.350525,27.829979 
	C654.881531,24.552834 658.484436,24.084156 662.297424,25.175398 
	C666.193420,26.290405 668.625305,28.822556 669.000366,32.950191 
	C669.286255,36.097378 669.478271,39.265236 669.481323,42.424114 
	C669.514465,76.746071 669.502014,111.068085 669.501953,145.872269 
z"/>
<path fill="#020202" opacity="1.000000" stroke="none" 
	d="
M881.998047,43.045143 
	C882.077515,39.723984 881.899719,36.857903 882.294250,34.072922 
	C882.950562,29.441124 885.320923,26.031012 890.199768,24.929901 
	C895.065735,23.831732 898.670715,25.818048 901.298523,29.740826 
	C902.680725,31.804207 903.785217,34.065067 904.900696,36.294037 
	C920.750061,67.967216 936.579895,99.650200 953.017639,132.537567 
	C955.083252,129.673782 957.107727,127.567200 958.328613,125.068031 
	C973.301880,94.418320 988.134216,63.699837 1003.067444,33.030537 
	C1005.391113,28.258232 1008.206299,23.959139 1014.656555,24.699142 
	C1019.773987,25.286243 1023.202698,28.567917 1023.723450,33.669434 
	C1023.791016,34.331585 1023.823914,35.000244 1023.824036,35.665897 
	C1023.830261,75.162041 1023.888794,114.658318 1023.789612,154.154205 
	C1023.767151,163.115829 1018.148926,167.445694 1010.332642,165.050201 
	C1005.863647,163.680573 1003.878906,160.364624 1003.859070,153.431824 
	C1003.793762,130.600891 1003.855225,107.769623 1003.800598,84.938644 
	C1003.793518,81.974632 1003.392029,79.011566 1002.067749,75.673264 
	C1001.323547,76.982773 1000.516235,78.260780 999.844421,79.606468 
	C988.257324,102.816399 976.687439,126.034897 965.111450,149.250366 
	C964.443726,150.589417 963.709534,151.897202 963.086487,153.256317 
	C961.119995,157.545761 957.994751,160.258133 953.112427,160.300903 
	C948.241577,160.343582 945.096375,157.716080 943.002258,153.464081 
	C939.549805,146.453766 935.947876,139.517181 932.468689,132.519852 
	C924.324524,116.140244 916.247070,99.727310 908.049683,83.374451 
	C907.116638,81.513268 905.590881,79.949181 903.519836,77.131561 
	C903.344055,79.890999 903.182251,81.256653 903.181274,82.622429 
	C903.164978,104.620277 903.205444,126.618271 903.127563,148.615845 
	C903.116516,151.737762 902.983643,154.978149 902.152100,157.952652 
	C900.587830,163.548370 896.904297,165.831238 891.337524,165.388458 
	C885.996643,164.963638 883.252075,162.341934 882.289368,156.503616 
	C881.993774,154.710739 882.009949,152.854202 882.009155,151.026779 
	C881.994324,115.196739 881.998108,79.366699 881.998047,43.045143 
z"/>
<path fill="#030303" opacity="1.000000" stroke="none" 
	d="
M90.743744,28.094381 
	C103.051003,44.065647 115.129990,59.759083 127.081841,75.548744 
	C139.237015,91.607040 151.251709,107.771622 163.380768,123.849808 
	C164.348099,125.132103 165.726639,126.104195 167.785370,128.039490 
	C167.785370,118.847168 167.780365,111.075188 167.786331,103.303223 
	C167.803574,80.818939 167.670822,58.332901 167.926453,35.851295 
	C168.019592,27.661257 172.170547,24.221132 179.383545,24.911501 
	C183.447220,25.300440 185.841736,27.612589 186.813339,31.239393 
	C187.534821,33.932579 187.792374,36.821754 187.797043,39.624401 
	C187.858246,76.269905 187.856018,112.915588 187.802612,149.561127 
	C187.798279,152.539658 187.546082,155.563965 186.987137,158.486313 
	C185.663162,165.408432 178.094284,168.411957 172.423950,164.211304 
	C170.192230,162.557999 168.184860,160.451431 166.504471,158.227081 
	C144.430008,129.006836 122.445480,99.718651 100.387604,70.485832 
	C98.821655,68.410522 96.858177,66.635178 93.837837,65.019104 
	C93.837837,66.702805 93.837837,68.386513 93.837837,70.070213 
	C93.837837,96.555000 93.866783,123.039856 93.797470,149.524460 
	C93.789696,152.495087 93.487495,155.520935 92.860481,158.421432 
	C91.800568,163.324417 87.787712,166.097122 82.554649,165.973373 
	C77.787888,165.860672 74.817490,163.227966 73.788872,158.087433 
	C73.430504,156.296448 73.047020,154.467957 73.040833,152.655350 
	C72.912849,115.180580 72.832184,77.705635 72.768692,40.230690 
	C72.765594,38.403416 72.874466,36.555679 73.152481,34.751568 
	C74.706963,24.663931 82.285782,21.663639 90.743744,28.094381 
z"/>
<path fill="#020202" opacity="1.000000" stroke="none" 
	d="
M1329.016602,146.831238 
	C1345.011230,146.897034 1360.508911,146.945114 1376.006348,147.052414 
	C1377.822021,147.064987 1379.665405,147.256821 1381.444458,147.618713 
	C1387.360474,148.822159 1389.596802,151.405090 1389.419556,156.601837 
	C1389.241211,161.825546 1386.377930,165.205994 1380.870972,165.987000 
	C1376.263428,166.640457 1371.585815,167.099838 1366.937500,167.114761 
	C1345.940796,167.182159 1324.943115,167.115158 1303.946533,166.986725 
	C1292.138306,166.914505 1288.007446,162.725067 1288.012573,150.930328 
	C1288.028320,114.433594 1288.103394,77.936874 1288.155640,41.440147 
	C1288.156006,41.106846 1288.153564,40.773472 1288.159302,40.440254 
	C1288.388062,27.195381 1291.478760,24.064945 1304.889526,24.020782 
	C1327.720581,23.945599 1350.552246,23.973101 1373.383301,24.036068 
	C1376.192017,24.043814 1379.054688,24.273029 1381.795776,24.854422 
	C1387.201904,26.001038 1389.482422,29.036797 1389.389404,34.336132 
	C1389.297974,39.544182 1387.265991,42.022690 1381.793213,43.187840 
	C1379.700317,43.633408 1377.512939,43.797344 1375.367188,43.807842 
	C1356.202759,43.901585 1337.037720,43.890511 1317.873413,44.002213 
	C1310.224121,44.046795 1308.845825,45.520317 1308.876343,53.121712 
	C1308.903198,59.787300 1308.898315,66.456032 1309.107544,73.117096 
	C1309.370117,81.483849 1311.673096,83.792542 1319.940674,84.022293 
	C1332.924194,84.383080 1345.924683,84.356918 1358.891602,85.012680 
	C1366.476685,85.396278 1369.752808,89.189041 1369.376831,95.523399 
	C1369.060181,100.862175 1365.108643,103.880348 1357.887573,103.937340 
	C1344.556274,104.042557 1331.223511,103.946030 1317.891968,104.036827 
	C1310.693359,104.085854 1309.033325,105.696129 1308.915405,112.885429 
	C1308.778687,121.214577 1308.781250,129.549255 1308.913696,137.878525 
	C1309.021729,144.683090 1310.223022,145.994919 1317.033569,146.622482 
	C1320.836426,146.972885 1324.689331,146.779541 1329.016602,146.831238 
z"/>
<path fill="#020202" opacity="1.000000" stroke="none" 
	d="
M703.998840,83.000000 
	C703.998840,67.840820 703.971130,53.181576 704.008118,38.522488 
	C704.034729,28.006655 707.683960,24.212658 718.032043,24.186001 
	C742.352783,24.123350 766.673828,24.132784 790.994629,24.182875 
	C800.160889,24.201752 804.290527,27.145746 804.791321,33.707493 
	C805.160828,38.549366 802.561523,42.111614 797.735718,42.975933 
	C794.969788,43.471317 792.132812,43.780750 789.325378,43.798660 
	C770.835571,43.916645 752.344910,43.893147 733.855042,43.999012 
	C725.127380,44.048981 724.023926,45.220379 724.004639,53.788269 
	C723.988525,60.951237 723.987366,68.114311 724.005066,75.277275 
	C724.024841,83.292374 725.084656,84.384689 733.269714,84.486282 
	C745.262390,84.635124 757.256165,84.694260 769.249146,84.816658 
	C771.412903,84.838745 773.589722,84.853394 775.735779,85.092979 
	C781.489258,85.735313 785.188843,89.732162 784.972168,94.910568 
	C784.760803,99.962959 781.115784,103.628670 775.440063,103.829750 
	C767.952454,104.095016 760.450867,103.969322 752.955261,103.999313 
	C745.792542,104.027969 738.627136,103.928749 731.467957,104.097992 
	C726.283203,104.220543 724.159058,106.324486 724.090088,111.445755 
	C723.964539,120.771378 724.042725,130.100037 724.072937,139.427307 
	C724.086243,143.545166 726.033630,146.013168 730.292114,146.337952 
	C732.609802,146.514709 734.930786,146.771362 737.250793,146.777191 
	C755.906433,146.824051 774.565125,146.657074 793.215210,146.989014 
	C796.371765,147.045197 800.470459,148.308823 802.442383,150.521759 
	C808.098877,156.869797 804.886902,164.596954 796.436584,165.973541 
	C792.669922,166.587143 788.818726,166.940048 785.003906,166.956985 
	C764.181641,167.049393 743.358704,167.001038 722.536011,166.998032 
	C721.703308,166.997910 720.870361,166.974777 720.037964,166.949081 
	C707.825562,166.572174 704.011047,162.670929 704.002991,150.465515 
	C703.988342,128.143677 703.998840,105.821838 703.998840,83.000000 
z"/>
<path fill="#030303" opacity="1.000000" stroke="none" 
	d="
M332.016907,151.889709 
	C312.112549,168.160461 289.835083,172.055634 266.008942,164.784851 
	C222.591980,151.535690 201.284439,104.488693 219.974014,64.439293 
	C239.099716,23.455393 294.467377,9.641752 330.610565,36.836670 
	C335.649750,40.628258 336.740204,45.927429 333.488831,50.823936 
	C330.266083,55.677311 326.020782,56.210491 319.952606,53.363777 
	C312.024841,49.644714 304.135681,45.464008 295.770233,43.128319 
	C270.342499,36.028744 229.146378,58.948647 234.172791,100.815819 
	C238.278336,135.012604 267.092712,151.050705 293.832336,147.644623 
	C301.768433,146.633713 309.256165,142.007828 316.909149,138.938202 
	C318.742920,138.202682 320.316254,136.631104 322.183319,136.203552 
	C326.323639,135.255432 330.220093,136.043610 332.924652,139.692856 
	C335.958008,143.785782 335.162842,147.791824 332.016907,151.889709 
z"/>
<path fill="#040404" opacity="1.000000" stroke="none" 
	d="
M1125.894287,58.082573 
	C1138.302856,87.568077 1150.587524,116.692360 1162.841187,145.829727 
	C1163.741699,147.971130 1164.509155,150.179367 1165.179810,152.404297 
	C1167.013672,158.487549 1165.135132,162.620438 1159.592651,164.923691 
	C1153.898682,167.289917 1148.828735,165.694794 1146.366821,159.841904 
	C1138.111816,140.215988 1130.162842,120.461082 1122.127075,100.743195 
	C1117.732056,89.959053 1113.447510,79.129593 1108.999634,68.367493 
	C1107.945312,65.816437 1106.434814,63.453983 1104.606323,60.011169 
	C1099.404785,72.575897 1094.649292,84.024368 1089.924438,95.485489 
	C1081.935181,114.865410 1073.972900,134.256500 1065.976074,153.633331 
	C1065.088135,155.784866 1064.183594,157.948822 1063.055176,159.978180 
	C1059.891113,165.667877 1055.025024,167.188614 1049.093750,164.484314 
	C1043.898682,162.115662 1042.192627,158.239716 1044.673706,152.017227 
	C1051.512207,134.867203 1058.667725,117.843414 1065.731689,100.783676 
	C1074.515015,79.571754 1083.309204,58.364269 1092.162476,37.181549 
	C1093.311401,34.432766 1094.576294,31.662697 1096.245361,29.214617 
	C1100.649170,22.755226 1109.471802,22.662319 1113.067993,29.546391 
	C1117.829956,38.662086 1121.578613,48.307072 1125.894287,58.082573 
z"/>
<path fill="#040404" opacity="1.000000" stroke="none" 
	d="
M1236.078369,43.896164 
	C1224.133301,43.797001 1223.557007,44.489620 1223.537354,55.944401 
	C1223.482544,87.769463 1223.329346,119.594376 1223.189941,151.419235 
	C1223.181152,153.413574 1223.190552,155.455429 1222.788208,157.391434 
	C1221.705444,162.603882 1217.087036,166.164703 1211.992432,165.962143 
	C1207.304321,165.775757 1203.717896,162.325623 1202.956299,156.912598 
	C1202.563599,154.122101 1202.516724,151.267288 1202.507690,148.440918 
	C1202.405029,116.615273 1202.406860,84.789108 1202.219849,52.964027 
	C1202.171265,44.702145 1201.300903,44.065105 1192.780640,43.955109 
	C1184.283691,43.845406 1175.779297,44.037209 1167.288574,43.770096 
	C1158.545898,43.495060 1154.448853,39.728600 1154.908813,32.894669 
	C1155.201172,28.552063 1157.444458,25.735920 1161.783203,24.919691 
	C1164.062622,24.490873 1166.405884,24.195496 1168.720825,24.191669 
	C1197.715454,24.143763 1226.710205,24.149878 1255.704834,24.183245 
	C1257.691406,24.185530 1259.705566,24.363165 1261.658691,24.721926 
	C1267.173462,25.734922 1269.846924,28.953352 1269.833130,34.327015 
	C1269.821045,39.050724 1267.280640,42.564156 1261.980957,43.035286 
	C1253.549927,43.784798 1245.040894,43.658863 1236.078369,43.896164 
z"/>
<path fill="#070707" opacity="1.000000" stroke="none" 
	d="
M366.170349,141.813232 
	C349.201996,116.314415 345.954926,89.838791 362.197052,63.671906 
	C377.660217,38.760109 401.350983,28.110645 430.716522,31.043980 
	C439.349091,31.906290 441.342926,35.193752 438.936829,43.470142 
	C433.938446,60.663326 428.899078,77.844597 423.556671,96.125328 
	C427.349731,96.125328 430.452240,96.668259 433.292969,96.035614 
	C449.503357,92.425499 465.635681,88.466278 481.829376,84.778801 
	C487.313934,83.529915 489.641937,85.147720 490.186005,90.854897 
	C492.742645,117.673424 483.496704,139.349350 461.807343,155.650055 
	C434.068085,176.497589 388.754547,172.866409 366.170349,141.813232 
M414.978516,108.008606 
	C412.762085,107.503113 411.639618,106.851654 412.534485,103.953506 
	C415.416779,94.619034 417.845612,85.144829 420.467651,75.729622 
	C423.596008,64.496239 426.743378,53.268154 430.050385,41.437294 
	C425.673950,40.851730 421.925720,39.999184 418.158447,39.904667 
	C397.824982,39.394539 374.191589,54.829147 365.915924,74.369896 
	C355.714325,98.458275 359.037018,121.162712 376.489227,140.346970 
	C393.884857,159.469086 416.446655,165.000381 440.808868,156.524078 
	C465.428284,147.958282 479.404694,129.682098 482.193054,103.446152 
	C483.043213,95.446815 481.006866,93.744698 473.208313,95.524345 
	C463.162811,97.816742 453.158447,100.292557 443.097015,102.510933 
	C434.038483,104.508194 424.926849,106.264664 414.978516,108.008606 
z"/>
<path fill="#010101" opacity="1.000000" stroke="none" 
	d="
M18.074320,146.904938 
	C18.047722,111.799904 17.997572,77.181190 18.047749,42.562622 
	C18.052526,39.266533 18.362696,35.897213 19.100451,32.692986 
	C20.229803,27.787958 24.215042,24.673708 28.620342,24.637077 
	C33.184837,24.599123 37.056034,27.451632 38.436348,32.340271 
	C39.055473,34.533009 39.135464,36.931408 39.137974,39.236832 
	C39.178211,76.185715 39.187740,113.134697 39.123604,150.083511 
	C39.118755,152.878098 38.813148,155.751755 38.109943,158.448532 
	C36.754158,163.647964 32.949062,166.139282 27.717346,165.731552 
	C22.566408,165.330124 19.766624,162.793472 18.915792,157.299500 
	C18.409756,154.031906 18.342840,150.696320 18.074320,146.904938 
z"/>
<path fill="#060606" opacity="1.000000" stroke="none" 
	d="
M431.885559,86.955444 
	C434.927155,75.142265 437.922485,63.771900 440.989716,52.420963 
	C442.979584,45.056934 445.017059,37.704659 447.139496,30.377899 
	C448.967804,24.066429 452.111420,22.503807 457.935669,25.200363 
	C476.376984,33.738441 489.910095,46.944061 496.750580,66.439560 
	C499.160065,73.306641 498.426208,74.989449 491.441895,76.623901 
	C472.860901,80.972214 454.248840,85.187729 435.649994,89.459770 
	C433.774628,89.890526 431.503601,91.086433 431.885559,86.955444 
M458.972778,75.540596 
	C468.255371,73.263031 477.537994,70.985474 487.156219,68.625557 
	C481.689514,51.724613 471.639679,41.020325 455.000397,35.091232 
	C450.951752,49.948063 447.075165,64.173317 443.036804,78.992340 
	C449.071381,77.711525 453.619568,76.746193 458.972778,75.540596 
z"/>
<path fill="#FDFDFD" opacity="1.000000" stroke="none" 
	d="
M415.408569,108.067970 
	C424.926849,106.264664 434.038483,104.508194 443.097015,102.510933 
	C453.158447,100.292557 463.162811,97.816742 473.208313,95.524345 
	C481.006866,93.744698 483.043213,95.446815 482.193054,103.446152 
	C479.404694,129.682098 465.428284,147.958282 440.808868,156.524078 
	C416.446655,165.000381 393.884857,159.469086 376.489227,140.346970 
	C359.037018,121.162712 355.714325,98.458275 365.915924,74.369896 
	C374.191589,54.829147 397.824982,39.394539 418.158447,39.904667 
	C421.925720,39.999184 425.673950,40.851730 430.050385,41.437294 
	C426.743378,53.268154 423.596008,64.496239 420.467651,75.729622 
	C417.845612,85.144829 415.416779,94.619034 412.534485,103.953506 
	C411.639618,106.851654 412.762085,107.503113 415.408569,108.067970 
z"/>
<path fill="#FBFBFB" opacity="1.000000" stroke="none" 
	d="
M458.570251,75.660721 
	C453.619568,76.746193 449.071381,77.711525 443.036804,78.992340 
	C447.075165,64.173317 450.951752,49.948063 455.000397,35.091232 
	C471.639679,41.020325 481.689514,51.724613 487.156219,68.625557 
	C477.537994,70.985474 468.255371,73.263031 458.570251,75.660721 
z"/>
</svg>