<svg version="1.1" id="Layer_1" xmlns="http://www.w3.org/2000/svg" xmlns:xlink="http://www.w3.org/1999/xlink" x="0px" y="0px"
	 width="100%" viewBox="0 0 1024 384" enable-background="new 0 0 1024 384" xml:space="preserve">
<path fill="#000000" opacity="1.000000" stroke="none" 
	d="
M633.849365,191.248352 
	C636.097717,195.730103 638.178528,199.878418 640.259338,204.026657 
	C642.849548,203.422836 643.011963,201.310226 643.742615,199.816147 
	C651.273682,184.414810 658.711731,168.967972 666.180786,153.536270 
	C666.760681,152.338150 667.311523,151.118286 667.992859,149.978485 
	C669.411316,147.605469 671.481567,146.309128 674.269409,147.091003 
	C676.982727,147.851990 678.322754,149.824539 678.322083,152.686874 
	C678.317200,173.999908 678.336426,195.312973 678.310242,216.625977 
	C678.305847,220.238190 676.397949,222.322830 672.756104,222.207428 
	C668.984680,222.087875 667.650879,219.508591 667.641052,216.111984 
	C667.606689,204.290009 667.649048,192.467773 667.601135,180.645889 
	C667.592712,178.566040 667.996277,176.407730 666.744080,173.713394 
	C661.726135,183.871506 656.960266,193.530151 652.183899,203.183624 
	C650.191345,207.210770 648.174316,211.225754 646.172913,215.248505 
	C645.001587,217.602737 643.490723,219.416168 640.531372,219.449112 
	C637.516296,219.482651 636.099731,217.557175 634.936340,215.226135 
	C629.138306,203.608383 623.361572,191.979996 617.524231,180.382065 
	C616.731018,178.806076 616.328735,176.943817 614.012024,175.292877 
	C614.012024,187.584976 614.019531,199.304794 614.004822,211.024567 
	C614.002319,213.020248 614.107849,215.047119 613.806091,217.004471 
	C613.279663,220.419098 611.213074,222.461731 607.636353,222.176849 
	C604.253113,221.907379 602.723328,219.689819 602.721008,216.393417 
	C602.705872,195.413284 602.702271,174.433167 602.698914,153.453033 
	C602.698425,150.301270 603.871338,147.762863 607.140320,147.092972 
	C610.404602,146.424072 612.455933,148.400742 613.829529,151.148972 
	C620.453552,164.401031 627.065613,177.659042 633.849365,191.248352 
z"/>
<path fill="#000000" opacity="1.000000" stroke="none" 
	d="
M424.497620,150.551544 
	C433.588379,168.676788 442.491913,186.475815 451.970123,205.423660 
	C454.384369,200.586212 456.247406,196.941299 458.033295,193.258972 
	C464.716614,179.478500 471.389740,165.693008 478.030701,151.892120 
	C479.511169,148.815521 481.472595,146.261719 485.248138,147.161438 
	C488.775238,148.001923 489.387085,150.940933 489.377808,154.228394 
	C489.320557,174.547287 489.332275,194.866501 489.376312,215.185486 
	C489.384338,218.886658 488.658325,222.123444 484.235931,222.210388 
	C479.555969,222.302383 478.628937,219.000076 478.639557,215.068863 
	C478.670166,203.743698 478.631622,192.418304 478.602539,181.093048 
	C478.597900,179.283630 478.836884,177.419891 477.597412,175.501328 
	C475.826691,176.681061 475.302673,178.622635 474.473022,180.290680 
	C468.838501,191.619324 463.253571,202.972595 457.643158,214.313263 
	C456.374969,216.876724 455.174591,219.462891 451.630402,219.483643 
	C448.075745,219.504456 446.843811,216.891495 445.569641,214.360229 
	C440.029877,203.354797 434.539398,192.324585 429.028046,181.304840 
	C428.080109,179.409409 427.117981,177.521072 425.044586,175.759537 
	C425.044586,178.647949 425.045410,181.536377 425.044434,184.424789 
	C425.041107,194.417679 425.095551,204.411087 425.004150,214.403168 
	C424.968597,218.287292 424.133209,222.150421 419.262604,222.221924 
	C414.251801,222.295486 413.672668,218.486404 413.675140,214.520248 
	C413.687836,194.367706 413.687469,174.215164 413.665222,154.062653 
	C413.661835,150.994186 414.429840,148.300629 417.589142,147.255295 
	C420.538086,146.279572 422.720337,147.755173 424.497620,150.551544 
z"/>
<path fill="#000000" opacity="1.000000" stroke="none" 
	d="
M202.101318,176.924744 
	C208.409149,185.317413 214.504150,193.425186 220.599136,201.532944 
	C220.957062,201.502808 221.314972,201.472672 221.672897,201.442535 
	C221.672897,199.593307 221.673737,197.744080 221.672745,195.894852 
	C221.665741,182.897644 221.656845,169.900421 221.653397,156.903214 
	C221.653030,155.570343 221.621780,154.233139 221.713440,152.905441 
	C221.948593,149.500046 223.524338,146.930878 227.149948,147.003510 
	C230.733246,147.075272 232.339020,149.533081 232.333878,153.061447 
	C232.324646,159.393387 232.348663,165.725372 232.348221,172.057327 
	C232.347244,186.387604 232.322296,200.717911 232.349564,215.048126 
	C232.355164,217.998184 232.237930,220.970047 228.980774,222.139130 
	C225.583008,223.358673 223.362106,221.347733 221.423828,218.763245 
	C209.928024,203.434723 198.396072,188.133209 186.841064,172.849243 
	C185.674911,171.306778 184.791687,169.465973 182.235001,168.066910 
	C182.235001,170.942902 182.234756,173.366318 182.235046,175.789734 
	C182.236511,188.287064 182.248352,200.784409 182.227432,213.281708 
	C182.224655,214.941422 182.283310,216.653687 181.913300,218.248779 
	C181.269592,221.023819 179.290314,222.419525 176.444763,222.424896 
	C173.717606,222.430054 172.038269,220.968231 171.568787,218.340179 
	C171.219574,216.385452 171.018997,214.377182 171.014313,212.392120 
	C170.970978,194.062805 170.983963,175.733322 170.983902,157.403900 
	C170.983902,156.404327 170.974686,155.402359 171.036484,154.405640 
	C171.228470,151.308868 171.673309,148.149185 175.191406,147.178802 
	C178.369751,146.302139 180.572754,148.380997 182.336075,150.699966 
	C188.889908,159.318924 195.376572,167.988968 202.101318,176.924744 
z"/>
<path fill="#000000" opacity="1.000000" stroke="none" 
	d="
M842.001526,223.030914 
	C836.674072,223.009048 831.838867,223.146774 827.020325,222.923187 
	C821.541931,222.668945 819.255432,220.599976 819.223938,215.253891 
	C819.105103,195.111374 819.085205,174.965912 819.319092,154.824936 
	C819.396790,148.126617 821.238586,146.748566 827.905212,146.732819 
	C840.225098,146.703690 852.545166,146.717651 864.865112,146.717407 
	C865.863770,146.717392 866.872681,146.660202 867.859192,146.777527 
	C870.975342,147.148132 873.303894,148.419739 873.315002,152.022552 
	C873.326233,155.672058 870.960815,157.094360 867.830688,157.148514 
	C858.843262,157.304016 849.851868,157.223145 840.862183,157.264893 
	C828.712708,157.321320 830.445435,156.387955 830.357361,167.596359 
	C830.268799,178.862167 830.337769,178.859619 841.814392,178.880280 
	C846.475891,178.888672 851.138977,178.846573 855.798462,178.952728 
	C859.476685,179.036499 862.804993,180.373566 862.668152,184.526062 
	C862.540283,188.405487 859.339233,189.407974 855.790527,189.375290 
	C848.965271,189.312393 842.135803,189.495361 835.314270,189.326645 
	C831.720947,189.237778 830.106201,190.436508 830.297058,194.206726 
	C830.515564,198.524292 830.524109,202.870850 830.293579,207.187180 
	C830.092957,210.943451 831.679810,212.173172 835.270447,212.122437 
	C844.425171,211.993103 853.583130,212.081329 862.739685,212.113007 
	C864.567688,212.119339 866.404114,212.174149 868.220886,212.360275 
	C871.163208,212.661682 873.306274,213.849609 873.333313,217.286209 
	C873.359680,220.637299 871.390686,222.088348 868.430237,222.487595 
	C859.811890,223.649887 851.142883,222.756073 842.001526,223.030914 
z"/>
<path fill="#000000" opacity="1.000000" stroke="none" 
	d="
M530.043579,157.214935 
	C516.398071,157.340057 518.489624,156.068695 518.454041,168.417984 
	C518.420105,180.191299 516.841064,178.794006 528.674622,178.905823 
	C533.837952,178.954620 539.003723,178.874924 544.164551,179.004883 
	C547.604126,179.091507 550.864807,180.315903 550.894104,184.204666 
	C550.926208,188.479279 547.583435,189.399536 543.858215,189.364822 
	C537.029419,189.301178 530.196289,189.484619 523.371216,189.314331 
	C519.779785,189.224731 518.155151,190.409805 518.350525,194.188904 
	C518.573853,198.508453 518.597412,202.858658 518.355774,207.175827 
	C518.143311,210.972885 519.788818,212.135330 523.349304,212.087708 
	C532.842163,211.960678 542.340637,211.916336 551.831299,212.111771 
	C555.771790,212.192917 560.812195,211.152924 561.563110,217.232697 
	C562.048401,221.161713 559.131409,222.826141 551.771606,222.883835 
	C540.278687,222.973938 528.784058,222.985962 517.291199,222.897430 
	C509.327972,222.836090 507.696991,221.091080 507.689850,213.106094 
	C507.672668,193.950119 507.654938,174.794052 507.687042,155.638123 
	C507.699158,148.397400 509.326813,146.775024 516.462219,146.754547 
	C528.622070,146.719620 540.781982,146.737503 552.941895,146.735428 
	C553.774658,146.735291 554.611023,146.707199 555.439514,146.771835 
	C558.727417,147.028336 561.440125,148.143051 561.509216,151.983841 
	C561.580078,155.928680 558.816895,157.069580 555.520630,157.133850 
	C549.359680,157.254028 543.195190,157.196960 537.032166,157.211060 
	C534.866699,157.216003 532.701233,157.213440 530.043579,157.214935 
z"/>
<path fill="#000000" opacity="1.000000" stroke="none" 
	d="
M284.149902,223.491364 
	C263.292542,222.549286 247.418991,206.945663 246.106430,186.491043 
	C244.862778,167.110336 258.645264,150.264038 278.605865,146.527954 
	C288.805908,144.618805 298.108093,146.784592 306.720764,152.226486 
	C309.743286,154.136261 312.825287,156.688309 310.270325,160.745651 
	C307.559113,165.051086 304.117706,163.201675 300.788483,161.106720 
	C290.500824,154.633087 279.921997,154.420380 269.744110,160.927460 
	C259.014923,167.787003 255.298065,178.357910 257.577240,190.439438 
	C259.691681,201.647537 267.046661,209.074097 278.154266,211.985687 
	C286.192200,214.092651 294.002258,212.930023 301.053070,208.114838 
	C303.140503,206.689270 305.331268,205.396622 307.996643,206.805359 
	C311.745575,208.786697 311.826233,213.343307 307.968628,216.199478 
	C301.041046,221.328674 293.187531,223.687363 284.149902,223.491364 
z"/>
<path fill="#000000" opacity="1.000000" stroke="none" 
	d="
M695.292725,200.368454 
	C701.995605,184.341217 708.537537,168.660904 715.077332,152.979736 
	C716.321106,149.997543 717.596802,146.910690 721.496521,146.901382 
	C725.207947,146.892517 726.397827,149.911682 727.571655,152.690994 
	C736.125427,172.944000 744.650330,193.209213 753.171143,213.476135 
	C754.622009,216.927048 754.728027,220.256363 750.692871,221.848648 
	C746.864868,223.359161 744.323181,221.382370 742.872314,217.780746 
	C736.586365,202.177094 730.295959,186.575287 724.006287,170.973129 
	C723.394836,169.456284 723.065186,167.786316 721.230957,166.221893 
	C716.829529,176.831528 712.504150,187.209763 708.219055,197.604614 
	C705.553223,204.071426 702.936401,210.558548 700.321167,217.046021 
	C698.865967,220.655731 696.570251,223.377319 692.387329,221.900085 
	C687.923828,220.323746 688.472351,216.739899 689.956116,213.177231 
	C691.685547,209.025009 693.406494,204.869293 695.292725,200.368454 
z"/>
<path fill="#000000" opacity="1.000000" stroke="none" 
	d="
M784.897034,194.999878 
	C784.819153,202.321503 784.809814,209.144958 784.631104,215.963989 
	C784.557373,218.773758 783.585876,221.227264 780.499023,222.106766 
	C776.427002,223.266922 773.680542,220.742355 773.655334,215.493210 
	C773.573669,198.514648 773.604919,181.535568 773.583923,164.556686 
	C773.574890,157.270935 773.565063,157.271667 766.109314,157.255402 
	C762.280823,157.247040 758.452026,157.266083 754.624023,157.216751 
	C751.019958,157.170288 748.195740,155.708984 748.196716,151.804184 
	C748.197632,148.068298 751.068909,146.779068 754.390076,146.768860 
	C770.702942,146.718689 787.015991,146.719940 803.328857,146.762680 
	C806.693665,146.771500 809.373535,148.170609 809.492554,151.873367 
	C809.614136,155.651505 806.942932,157.073975 803.580505,157.172043 
	C798.923279,157.307861 794.251892,157.422302 789.602173,157.207581 
	C785.944458,157.038666 784.703735,158.204727 784.801392,162.042633 
	C785.076538,172.855545 784.897400,183.680023 784.897034,194.999878 
z"/>
<path fill="#000000" opacity="1.000000" stroke="none" 
	d="
M373.812561,220.022308 
	C353.617645,229.286835 331.406830,221.269791 323.215057,202.063263 
	C314.641022,181.960388 323.591553,160.477478 344.016815,152.488525 
	C349.804871,150.224640 355.828796,149.460999 362.125214,150.345825 
	C366.548187,150.967377 367.750458,152.586777 366.374420,156.951508 
	C363.487305,166.109436 361.013367,175.397629 358.342743,184.726776 
	C361.097229,186.555740 363.503448,184.986404 365.727905,184.520767 
	C372.879059,183.023865 379.948975,181.138962 387.051270,179.408173 
	C392.453308,178.091705 393.746704,178.736694 393.960022,184.460068 
	C394.545929,200.183136 387.792511,211.991516 373.812561,220.022308 
M338.238861,160.710358 
	C328.770782,167.615967 323.856781,177.222839 324.557800,188.632660 
	C325.673950,206.799057 340.490326,219.887619 358.126801,219.173141 
	C374.696320,218.501862 388.439667,205.502289 389.615662,188.330399 
	C389.849426,184.916962 388.666443,183.778244 385.254181,184.622971 
	C376.703705,186.739655 368.125702,188.750443 359.530487,190.677612 
	C357.219238,191.195847 354.855530,192.413651 351.861847,190.940781 
	C355.113556,179.292831 358.348053,167.706406 361.573608,156.152161 
	C353.978455,153.829422 347.177124,155.157043 338.238861,160.710358 
z"/>
<path fill="#000000" opacity="1.000000" stroke="none" 
	d="
M141.909821,187.000000 
	C141.907516,176.500748 141.906982,166.501511 141.902527,156.502258 
	C141.901550,154.330551 141.885406,152.152298 142.819641,150.123260 
	C143.745132,148.113281 145.425247,147.027618 147.556580,146.987701 
	C149.706696,146.947479 151.328842,148.056229 152.339905,150.028900 
	C153.298080,151.898392 153.224731,153.898819 153.225006,155.895203 
	C153.227783,175.060425 153.224640,194.225632 153.220322,213.390854 
	C153.220123,214.223907 153.240768,215.061234 153.168488,215.889282 
	C152.863495,219.384003 151.542847,222.172821 147.561935,222.272644 
	C143.429688,222.376236 142.132706,219.444000 142.006470,215.995148 
	C141.817596,210.835556 141.924805,205.664978 141.915009,200.499039 
	C141.906784,196.166046 141.911301,191.833008 141.909821,187.000000 
z"/>
<path fill="#000000" opacity="1.000000" stroke="none" 
	d="
M365.742188,167.818573 
	C367.483215,161.666199 369.241943,155.933182 370.744415,150.133804 
	C371.642822,146.666016 373.416321,145.896423 376.574097,147.347076 
	C386.593658,151.950012 393.821014,159.105194 397.342926,169.727386 
	C398.017639,171.762329 398.573212,173.712967 395.664917,174.425400 
	C384.873932,177.068878 374.145630,180.001862 362.555206,182.014664 
	C362.371033,176.777588 364.567902,172.600143 365.742188,167.818573 
M377.683563,174.050690 
	C382.415344,172.684723 387.388550,172.138626 391.902649,170.104813 
	C390.388031,162.605194 382.785339,154.636780 375.209778,152.804840 
	C372.577576,160.130341 370.406342,167.592926 368.867523,175.958588 
	C372.090302,175.293701 374.499908,174.796585 377.683563,174.050690 
z"/>
</svg>